<svg width="100" height="100" viewBox="0 0 24 24" xmlns="http://www.w3.org/2000/svg" xmlns:xlink="http://www.w3.org/1999/xlink" overflow="hidden"><path d="M19.55 16.48C20.4526 14.6012 21.2179 12.6594 21.84 10.67 22.9232 7.20545 23.5846 3.62293 23.81-8.7738e-07 20.3073 0.37255 16.8482 1.0791 13.48 2.11 11.4824 2.72116 9.52231 3.44908 7.61 4.29 3.73149 5.95394 1.74022 10.282 3 14.31 6.52645 11.1072 10.7839 8.81707 15.4 7.64 14.23 8.31 5.4 15.28 3.86 16.82 2.91254 17.7747 2.06483 18.8234 1.33 19.95 1.13 20.29 0.94 20.62 0.78 20.95L3.86 24C4.47063 22.3536 5.42128 20.8544 6.65 19.6L6.83 19.44C7.86905 20.1769 9.04043 20.7066 10.28 21 14.0507 21.8804 17.9215 19.993 19.55 16.48Z" fill="#FFFFFF"/></svg>